<?xml version="1.0" standalone="no"?>
<!DOCTYPE svg PUBLIC "-//W3C//DTD SVG 20010904//EN"
 "http://www.w3.org/TR/2001/REC-SVG-20010904/DTD/svg10.dtd">
<svg version="1.0" xmlns="http://www.w3.org/2000/svg"
 width="260.000000pt" height="260.000000pt" viewBox="0 0 260.000000 260.000000"
 preserveAspectRatio="xMidYMid meet">
<metadata>
Created by potrace 1.11, written by Peter Selinger 2001-2013
</metadata>
<g transform="translate(0.000000,260.000000) scale(0.100000,-0.100000)"
fill="#000000" stroke="none">
<path d="M685 2318 c-2 -7 -22 -83 -45 -168 -22 -85 -49 -189 -60 -230 -11
-41 -79 -298 -150 -570 -72 -272 -146 -553 -165 -625 -19 -71 -35 -137 -35
-145 0 -13 38 -15 289 -14 264 2 324 5 387 18 30 6 86 22 107 31 13 5 17 2 17
-13 0 -45 18 -47 341 -41 334 6 362 10 496 74 200 94 338 241 412 438 18 50
63 235 117 483 29 134 62 301 68 349 10 76 25 200 30 245 3 25 8 73 12 108 l7
62 -166 0 c-183 0 -169 5 -182 -70 -3 -19 -15 -73 -25 -120 -10 -47 -21 -99
-24 -116 -18 -100 -59 -295 -116 -549 -18 -77 -34 -151 -36 -165 -3 -14 -17
-74 -31 -135 -14 -60 -31 -137 -39 -170 -18 -86 -29 -109 -69 -153 -57 -64
-120 -85 -250 -86 -104 -1 -110 0 -108 19 4 37 11 69 133 595 67 289 134 581
150 650 16 69 38 163 49 210 11 47 18 87 15 89 -2 2 -75 5 -161 5 l-157 1 -27
-90 c-15 -49 -80 -263 -144 -475 -64 -212 -130 -428 -145 -480 -116 -391 -120
-400 -174 -447 -57 -51 -135 -74 -243 -74 -52 0 -98 3 -102 6 -5 2 4 44 20 92
15 49 50 160 78 248 27 88 86 275 130 415 103 328 240 770 247 793 5 16 -10
17 -221 17 -171 0 -227 -3 -230 -12z"/>
<path d="M1060 500 c0 -3 -30 -3 -66 -2 -48 3 -69 0 -75 -10 -5 -7 -9 -8 -9
-3 0 6 -9 11 -20 12 -11 1 -20 -1 -20 -5 0 -4 -30 -7 -68 -7 -69 -1 -210 -12
-253 -20 -13 -3 -46 -8 -74 -11 -27 -4 -52 -9 -55 -13 -3 -3 -25 -7 -49 -8
-25 -2 -47 -6 -50 -10 -3 -5 -19 -9 -35 -11 -31 -3 -101 -36 -110 -51 -13 -21
34 -58 96 -75 35 -10 73 -22 84 -26 14 -5 26 -4 34 3 7 7 10 7 7 1 -6 -11 79
-27 208 -40 33 -3 62 -8 64 -10 2 -2 11 2 19 9 11 8 13 8 9 0 -5 -7 9 -12 44
-15 28 -1 53 1 56 5 3 4 11 3 18 -3 8 -7 29 -11 47 -10 18 1 38 1 43 0 26 -6
41 -5 59 3 12 6 16 5 12 -1 -3 -5 6 -10 22 -10 438 -4 615 -2 630 10 9 7 13 8
9 2 -6 -11 14 -11 178 0 211 15 331 29 445 52 141 29 210 60 210 92 0 22 -67
62 -109 65 -17 1 -31 6 -31 11 0 4 -13 6 -29 4 -17 -2 -28 -1 -26 2 2 4 -33
12 -78 20 -45 7 -89 14 -97 15 -8 2 -46 6 -85 9 -38 4 -92 9 -120 12 -65 6
-240 14 -387 18 -81 2 -118 -1 -118 -8 0 -7 -3 -8 -8 -1 -10 15 -82 16 -82 2
0 -8 -3 -9 -8 -1 -7 11 -232 15 -232 4z m1021 -87 c13 -16 12 -17 -3 -4 -17
13 -22 21 -14 21 2 0 10 -8 17 -17z m-1551 -131 c0 -5 -7 -9 -15 -9 -8 0 -12
4 -9 9 3 4 9 8 15 8 5 0 9 -4 9 -8z"/>
</g>
</svg>
